# xmcd
# 
# Track frame offsets:
#     150
#     22006
#     42433
#     66656
#     79530
#     101423
#     124050
#     140473
#     166682
#     183259
#     208241
#     227658
# 
# Disc length: 3467
# 
# Revision: 2
# Processed by: cddbd v1.5.2PL0 Copyright (c) Steve Scherf et al.
# Submitted via: fre:ac v1.0.31
# 
DISCID=a20d890c
DTITLE=Walter Trout - The Blues Came Callin'
DYEAR=2014
DGENRE=Blues
TTITLE0=Wastin' Away
TTITLE1=The World is Goin' Crazy (and so am I)
TTITLE2=The Bottom of the River
TTITLE3=Take a Little Time
TTITLE4=The Whale
TTITLE5=Willie
TTITLE6=Mayall's Piano Boogie
TTITLE7=Born in the City
TTITLE8=Tight Shoes
TTITLE9=The Blues Came Callin'
TTITLE10=Hard Time
TTITLE11=Nobody Moves Me Like You Do
EXTD=
EXTT0=
EXTT1=
EXTT2=
EXTT3=
EXTT4=
EXTT5=
EXTT6=
EXTT7=
EXTT8=
EXTT9=
EXTT10=
EXTT11=
PLAYORDER=
